<!DOCTYPE svg PUBLIC "-//W3C//DTD SVG 1.1//EN" "http://www.w3.org/Graphics/SVG/1.1/DTD/svg11.dtd">
<!-- Uploaded to: SVG Repo, www.svgrepo.com, Transformed by: SVG Repo Mixer Tools -->
<svg fill="#ff0000" height="70px" width="70px" version="1.1" id="Capa_1" xmlns="http://www.w3.org/2000/svg" xmlns:xlink="http://www.w3.org/1999/xlink" viewBox="0 0 471.814 471.814" xml:space="preserve" stroke="#ff0000" stroke-width="0.004718140000000001" transform="matrix(-1, 0, 0, 1, 0, 0)">
<g id="SVGRepo_bgCarrier" stroke-width="0"/>
<g id="SVGRepo_tracerCarrier" stroke-linecap="round" stroke-linejoin="round"/>
<g id="SVGRepo_iconCarrier"> <g> <g> <path style="fill-rule:evenodd;clip-rule:evenodd;" d="M425.021,90.471c29.772,38.063,46.793,89.406,46.793,143.484 c0,129.167-105.959,237.846-235.174,237.846c-90.902,0-170.927-59.853-209.644-123.689h101.969 c48.602,0,82.548-30.066,82.548-71.933c0-88.736-102.374-51.998-102.374-83.491c0-15.181,12.157-20.122,34.447-20.122h37.129 h33.854c19.67,0,34.883-1.559,34.883,19.92v70.709c0,51.18,46.355,77.077,87.785,77.077c42.177,0,87.784-25.897,87.784-77.077 V90.471L425.021,90.471z"/> </g> <g> <path style="fill-rule:evenodd;clip-rule:evenodd;" d="M232.525,0.013c48.786,0,96.73,14.947,128.652,40.503v224.332 c0,15.548-8.417,28.252-23.941,28.252l0,0c-15.555,0-23.94-12.704-23.94-28.252v-67.203c0-53.672-29.896-72.953-65.279-72.953 c-38.373,0-76.747,0-115.123,0c-41.679,0-76.25,25.025-76.25,67.07c0,21.541,9.227,52.309,52.809,60.134 c35.536,6.39,49.564,7.707,49.564,26.715c0,18.44-20.668,21.627-47.976,21.627H9.009C4.084,268.324,0,257.958,0,237.524 C0,108.342,103.31,0.013,232.525,0.013L232.525,0.013z"/> </g> </g> </g>
</svg>